<svg xmlns:dc="http://purl.org/dc/elements/1.1/" xmlns:cc="http://creativecommons.org/ns#" xmlns:rdf="http://www.w3.org/1999/02/22-rdf-syntax-ns#" xmlns:svg="http://www.w3.org/2000/svg" xmlns="http://www.w3.org/2000/svg" xmlns:xlink="http://www.w3.org/1999/xlink" id="svg789178" version="1.1" viewBox="252 358.57 520 50.86">
  <metadata id="metadata789184">
    <rdf:rdf>
      <cc:work rdf:about="">
        <dc:format>image/svg+xml</dc:format>
        <dc:type rdf:resource="http://purl.org/dc/dcmitype/StillImage"/>
      </cc:work>
    </rdf:rdf>
  </metadata>
  <defs id="defs789182"/>
  <g id="logo-group">
    <image xlink:href="../nounpreview/4408772.png" id="icon" width="200" height="200" x="412" y="0" style="display: none;"/>
    <g id="title" style="font-style:normal;font-weight:300;font-size:72px;line-height:1;font-family:'Montserrat Light Alt1';font-variant-ligatures:none;text-align:center;text-anchor:middle">
      <path id="path789186" style="font-style: normal; font-weight: 300; font-size: 72px; line-height: 1; font-family: &quot;Montserrat Light Alt1&quot;; font-variant-ligatures: none; text-align: center; text-anchor: middle; fill: rgb(255, 255, 255);" d="M 254.93244,-50.4 V 0 h 3.672 v -50.4 z" transform="translate(0 308.31140682582065) translate(252.00000000000006 50.61718634835878) scale(0.9948970962627226) translate(-254.93244 50.4)"/>
      <path id="path789188" style="font-style: normal; font-weight: 300; font-size: 72px; line-height: 1; font-family: &quot;Montserrat Light Alt1&quot;; font-variant-ligatures: none; text-align: center; text-anchor: middle; fill: rgb(255, 255, 255);" d="m 317.20681,-50.4 h -3.672 v 43.776 l -34.272,-43.776 h -3.096 V 0 h 3.672 V -43.776 L 314.18281,0 h 3.024 z" transform="translate(0 308.31140682582065) translate(273.12601305396834 50.61718634835878) scale(0.9948970962627226) translate(-276.16681 50.4)"/>
      <path id="path789190" style="font-style: normal; font-weight: 300; font-size: 72px; line-height: 1; font-family: &quot;Montserrat Light Alt1&quot;; font-variant-ligatures: none; text-align: center; text-anchor: middle; fill: rgb(255, 255, 255);" d="m 367.78344,-45.864 c -3.6,-3.024 -8.568,-4.536 -14.904,-4.536 h -18.072 v 3.312 h 18.072 c 5.328,0 9.432,1.224 12.312,3.6 2.808,2.376 4.248,5.76 4.248,10.08 0,4.392 -1.44,7.776 -4.248,10.08 -2.88,2.376 -6.984,3.528 -12.312,3.528 h -18.072 V 0 h 3.672 v -16.488 h 14.4 c 6.336,0 11.304,-1.44 14.904,-4.464 3.6,-3.024 5.4,-7.128 5.4,-12.456 0,-5.256 -1.8,-9.432 -5.4,-12.456 z" transform="translate(0 308.31140682582065) translate(331.467405563985 50.61718634835878) scale(0.9948970962627226) translate(-334.80744 50.4)"/>
      <path id="path789192" style="font-style: normal; font-weight: 300; font-size: 72px; line-height: 1; font-family: &quot;Montserrat Light Alt1&quot;; font-variant-ligatures: none; text-align: center; text-anchor: middle; fill: rgb(255, 255, 255);" d="m 390.81894,-5.184 c 3.528,3.744 8.496,5.544 14.904,5.544 6.336,0 11.304,-1.8 14.904,-5.544 3.528,-3.672 5.328,-9.072 5.328,-16.2 V -50.4 h -3.672 v 28.872 c 0,6.192 -1.44,10.872 -4.248,13.896 -2.88,3.096 -6.912,4.608 -12.24,4.608 -5.4,0 -9.504,-1.512 -12.312,-4.608 -2.88,-3.024 -4.248,-7.704 -4.248,-13.896 V -50.4 h -3.672 v 29.016 c 0,7.128 1.728,12.528 5.256,16.2 z" transform="translate(0 308.31140682582065) translate(381.9639051333477 50.61718634835878) scale(0.9948970962627226) translate(-385.56294 50.4)"/>
      <path id="path789194" style="font-style: normal; font-weight: 300; font-size: 72px; line-height: 1; font-family: &quot;Montserrat Light Alt1&quot;; font-variant-ligatures: none; text-align: center; text-anchor: middle; fill: rgb(255, 255, 255);" d="M 451.75231,-47.088 V 0 h 3.672 v -47.088 h 18.144 V -50.4 h -39.96 v 3.312 z" transform="translate(0 308.31140682582065) translate(429.7641042352158 50.61718634835878) scale(0.9948970962627226) translate(-433.60831 50.4)"/>
      <path id="path789196" style="font-style: normal; font-weight: 300; font-size: 72px; line-height: 1; font-family: &quot;Montserrat Light Alt1&quot;; font-variant-ligatures: none; text-align: center; text-anchor: middle; fill: rgb(255, 255, 255);" d="m 489.89319,-2.952 c 3.96,2.232 8.424,3.312 13.392,3.312 4.896,0 9.36,-1.08 13.392,-3.312 3.96,-2.16 7.056,-5.256 9.36,-9.144 2.304,-3.888 3.456,-8.208 3.456,-13.104 0,-4.824 -1.152,-9.216 -3.456,-13.104 -2.304,-3.888 -5.4,-6.912 -9.36,-9.144 -4.032,-2.16 -8.496,-3.312 -13.392,-3.312 -4.968,0 -9.432,1.152 -13.392,3.384 -4.032,2.232 -7.128,5.256 -9.432,9.144 -2.304,3.888 -3.384,8.28 -3.384,13.032 0,4.824 1.08,9.144 3.384,13.032 2.304,3.888 5.4,6.984 9.432,9.216 z m 24.84,-2.952 c -3.456,1.944 -7.272,2.88 -11.448,2.88 -4.248,0 -8.064,-0.936 -11.52,-2.88 -3.456,-1.872 -6.12,-4.536 -8.064,-7.92 -2.016,-3.384 -2.952,-7.2 -2.952,-11.376 0,-4.176 0.936,-7.92 2.952,-11.304 1.944,-3.384 4.608,-6.048 8.064,-7.992 3.456,-1.872 7.272,-2.88 11.52,-2.88 4.176,0 7.992,1.008 11.448,2.88 3.384,1.944 6.048,4.608 8.064,7.992 1.944,3.384 2.952,7.128 2.952,11.304 0,4.176 -1.008,7.992 -2.952,11.376 -2.016,3.384 -4.68,6.048 -8.064,7.92 z" transform="translate(0 308.31140682582065) translate(473.01116672500854 50.2590233937042) scale(0.9948970962627226) translate(-477.07719 50.76)"/>
      <path id="path789198" style="font-style: normal; font-weight: 300; font-size: 72px; line-height: 1; font-family: &quot;Montserrat Light Alt1&quot;; font-variant-ligatures: none; text-align: center; text-anchor: middle; fill: rgb(255, 255, 255);" d="m 547.05331,-5.184 c 3.528,3.744 8.496,5.544 14.904,5.544 6.336,0 11.304,-1.8 14.904,-5.544 3.528,-3.672 5.328,-9.072 5.328,-16.2 V -50.4 h -3.672 v 28.872 c 0,6.192 -1.44,10.872 -4.248,13.896 -2.88,3.096 -6.912,4.608 -12.24,4.608 -5.4,0 -9.504,-1.512 -12.312,-4.608 -2.88,-3.024 -4.248,-7.704 -4.248,-13.896 V -50.4 h -3.672 v 29.016 c 0,7.128 1.728,12.528 5.256,16.2 z" transform="translate(0 308.31140682582065) translate(537.4010261827837 50.61718634835878) scale(0.9948970962627226) translate(-541.79731 50.4)"/>
      <path id="path789200" style="font-style: normal; font-weight: 300; font-size: 72px; line-height: 1; font-family: &quot;Montserrat Light Alt1&quot;; font-variant-ligatures: none; text-align: center; text-anchor: middle; fill: rgb(255, 255, 255);" d="M 607.98669,-47.088 V 0 h 3.672 v -47.088 h 18.144 V -50.4 h -39.96 v 3.312 z" transform="translate(0 308.31140682582065) translate(585.2012352336226 50.61718634835878) scale(0.9948970962627226) translate(-589.84269 50.4)"/>
      <path id="path789202" style="font-style: normal; font-weight: 300; font-size: 72px; line-height: 1; font-family: &quot;Montserrat Light Alt1&quot;; font-variant-ligatures: none; text-align: center; text-anchor: middle; fill: rgb(255, 255, 255);" d="m 671.81469,-45.864 c -3.6,-3.024 -8.568,-4.536 -14.904,-4.536 h -18.072 v 3.312 h 18.072 c 5.328,0 9.432,1.224 12.312,3.6 2.808,2.376 4.248,5.76 4.248,10.08 0,4.392 -1.44,7.776 -4.248,10.08 -2.88,2.376 -6.984,3.528 -12.312,3.528 h -18.072 V 0 h 3.672 v -16.488 h 14.4 c 6.336,0 11.304,-1.44 14.904,-4.464 3.6,-3.024 5.4,-7.128 5.4,-12.456 0,-5.256 -1.8,-9.432 -5.4,-12.456 z" transform="translate(0 308.31140682582065) translate(633.9472133621109 50.61718634835878) scale(0.9948970962627226) translate(-638.83869 50.4)"/>
      <path id="path789204" style="font-style: normal; font-weight: 300; font-size: 72px; line-height: 1; font-family: &quot;Montserrat Light Alt1&quot;; font-variant-ligatures: none; text-align: center; text-anchor: middle; fill: rgb(255, 255, 255);" d="m 694.85019,-5.184 c 3.528,3.744 8.496,5.544 14.904,5.544 6.336,0 11.304,-1.8 14.904,-5.544 3.528,-3.672 5.328,-9.072 5.328,-16.2 V -50.4 h -3.672 v 28.872 c 0,6.192 -1.44,10.872 -4.248,13.896 -2.88,3.096 -6.912,4.608 -12.24,4.608 -5.4,0 -9.504,-1.512 -12.312,-4.608 -2.88,-3.024 -4.248,-7.704 -4.248,-13.896 V -50.4 h -3.672 v 29.016 c 0,7.128 1.728,12.528 5.256,16.2 z" transform="translate(0 308.31140682582065) translate(684.4437129314736 50.61718634835878) scale(0.9948970962627226) translate(-689.59419 50.4)"/>
      <path id="path789206" style="font-style: normal; font-weight: 300; font-size: 72px; line-height: 1; font-family: &quot;Montserrat Light Alt1&quot;; font-variant-ligatures: none; text-align: center; text-anchor: middle; fill: rgb(255, 255, 255);" d="M 755.78356,-47.088 V 0 h 3.672 v -47.088 h 18.144 V -50.4 h -39.96 v 3.312 z" transform="translate(0 308.31140682582065) translate(732.2439120333415 50.61718634835878) scale(0.9948970962627226) translate(-737.63956 50.4)"/>
    </g>
    <g id="tagline" style="font-style:normal;font-weight:400;font-size:32px;line-height:1;font-family:Montserrat;font-variant-ligatures:none;text-align:center;text-anchor:middle"/>
  </g>
</svg>