<?xml version="1.0" standalone="no"?>
<!DOCTYPE svg PUBLIC "-//W3C//DTD SVG 20010904//EN"
 "http://www.w3.org/TR/2001/REC-SVG-20010904/DTD/svg10.dtd">
<svg version="1.0" xmlns="http://www.w3.org/2000/svg"
 width="256.000000pt" height="256.000000pt" viewBox="0 0 256.000000 256.000000"
 preserveAspectRatio="xMidYMid meet">
<metadata>
Created by potrace 1.14, written by Peter Selinger 2001-2017
</metadata>
<g transform="translate(0.000000,256.000000) scale(0.100000,-0.100000)"
fill="#000000" stroke="none">
<path d="M1175 2132 c-2 -3 -19 -6 -37 -7 -18 -1 -40 -5 -48 -7 -8 -3 -51 -18
-95 -32 -283 -93 -512 -365 -561 -666 -18 -113 -7 -310 23 -390 3 -8 7 -19 8
-25 2 -5 11 -28 20 -50 10 -22 19 -45 21 -52 1 -7 12 -26 23 -42 12 -16 21
-32 21 -35 0 -31 191 -236 220 -236 5 0 10 -4 10 -8 0 -5 12 -15 28 -23 15 -7
37 -21 50 -31 22 -16 166 -75 204 -84 10 -2 28 -6 41 -9 59 -14 221 -23 262
-15 6 1 13 2 18 1 15 -2 153 32 202 50 190 73 385 244 456 402 7 15 15 27 19
27 4 0 7 6 7 13 1 6 13 44 28 82 15 39 26 71 26 73 -1 1 -1 3 0 5 19 61 28
265 15 317 -3 14 -8 39 -10 55 -13 91 -86 264 -139 326 -9 10 -17 21 -17 24 0
7 -71 84 -104 114 -16 14 -37 33 -45 41 -29 27 -149 99 -155 93 -3 -4 -6 -1
-6 5 0 7 -3 11 -7 10 -5 -1 -28 7 -53 18 -25 12 -63 24 -85 28 -22 4 -44 11
-50 14 -5 3 -19 7 -30 9 -40 6 -255 10 -260 5z m220 -57 c56 -7 120 -22 150
-34 48 -19 176 -84 188 -95 6 -6 28 -23 47 -36 38 -26 150 -139 150 -151 0 -4
6 -14 13 -21 21 -22 63 -99 90 -168 39 -99 48 -150 52 -295 2 -55 0 -104 -3
-110 -4 -5 -7 -21 -7 -35 0 -14 -3 -29 -7 -35 -3 -5 -9 -26 -13 -45 -15 -73
-110 -248 -157 -291 -10 -9 -18 -22 -18 -29 0 -7 -2 -11 -5 -8 -3 2 -29 -19
-59 -47 -80 -75 -234 -157 -338 -181 -10 -2 -27 -6 -38 -8 -11 -3 -25 -8 -32
-12 -7 -5 -8 -3 -3 5 6 10 3 11 -11 3 -35 -18 -290 -3 -329 19 -5 4 -23 10
-40 14 -16 5 -32 9 -35 10 -13 3 -106 50 -110 55 -3 3 -17 11 -32 17 -16 7
-28 17 -28 23 0 5 -6 10 -13 10 -7 0 -38 24 -69 54 -232 218 -314 523 -226
831 6 22 11 43 10 47 -1 3 5 12 13 18 8 7 15 19 15 26 0 26 79 153 123 196 15
16 25 28 22 28 -4 0 8 12 27 27 18 16 38 32 44 38 23 21 69 54 79 56 6 2 15 7
22 13 24 21 38 32 43 33 7 2 60 23 90 35 14 6 30 12 35 13 6 2 28 8 50 14 22
5 62 13 90 16 27 4 51 7 52 8 4 4 119 -1 168 -8z"/>
<path d="M1455 1622 c-4 -10 12 -33 42 -64 l47 -48 -100 0 -101 0 -24 -45
c-13 -25 -27 -45 -30 -45 -4 0 -10 -11 -13 -25 -4 -14 -11 -25 -16 -25 -6 0
-10 -4 -10 -9 0 -5 -20 -44 -45 -85 -25 -42 -45 -81 -45 -86 0 -6 -4 -10 -8
-10 -5 0 -17 -18 -27 -40 l-18 -40 -121 -1 c-67 -1 -126 -1 -133 0 -16 2 -25
-16 -19 -37 5 -15 20 -17 143 -16 76 1 143 2 149 3 6 0 23 22 38 49 15 26 38
65 52 87 13 22 34 59 46 83 12 23 26 42 30 42 4 0 8 6 8 14 0 7 9 25 21 40 11
14 17 26 12 26 -4 0 -3 4 2 8 6 4 18 18 26 32 15 23 22 25 98 25 44 0 81 -1
81 -4 0 -2 -17 -20 -38 -40 -44 -43 -55 -64 -40 -79 16 -16 36 -2 111 74 78
78 78 76 -16 168 -60 61 -91 75 -102 48z"/>
<path d="M839 1508 c-7 -14 -4 -48 5 -51 6 -2 58 -3 116 -2 74 1 112 -2 127
-12 13 -7 22 -17 21 -21 -3 -8 47 -88 60 -95 14 -9 33 9 29 29 -1 11 -13 36
-25 55 -12 20 -22 39 -22 43 0 3 -10 17 -22 31 -21 24 -25 25 -155 25 -73 0
-134 -1 -134 -2z"/>
<path d="M1465 1220 c-16 -18 -15 -21 30 -69 l48 -51 -89 0 c-77 0 -92 3 -107
20 -9 11 -14 20 -12 20 3 0 1 6 -5 13 -5 6 -18 23 -28 36 -13 17 -23 21 -33
15 -14 -9 -19 -34 -9 -44 3 -3 14 -23 25 -45 34 -68 39 -70 148 -70 53 0 97
-3 97 -8 0 -5 -13 -21 -28 -35 -43 -41 -55 -67 -36 -82 12 -11 19 -9 41 11 77
72 131 131 129 144 -1 7 -36 47 -78 89 -73 72 -77 74 -93 56z"/>
</g>
</svg>
